<svg xmlns="http://www.w3.org/2000/svg" id="Logo" width="200.648" height="42.953" viewBox="0 0 200.648 42.953">
    <defs>
        <style>
            .cls-1{fill:#f9f9f9}.cls-2{fill:#fff}
        </style>
    </defs>
    <path id="Subtraction_1" d="M30.1 39.323h-1.574V12.65l-2.6-.789v27.462h-1.34V7.761l9.068 3.548v28.014H31.6V20.535l-1.5-.71v19.5zm-17.9 0h-.585L0 20 12.144 0H35.38l12.2 20-12.115 19.188V9.1L24.11 5.316 12.2 9.653z" class="cls-1" data-name="Subtraction 1" transform="translate(0 .633)"/>
    <path id="Path_3" d="M10.005-91.269h4v-19.952h-4zm19.038 0h4v-9.29c0-4.374-2.63-6.775-6.317-6.775a5.915 5.915 0 0 0-4.774 2.2v-1.972h-4v15.836h4v-8.747c0-2.544 1.4-3.916 3.573-3.916 2.115 0 3.516 1.372 3.516 3.916zm8.433-4.917c0 3.63 2.03 4.917 5.06 4.917h2.514v-3.373h-1.858c-1.258 0-1.687-.457-1.687-1.515v-7.661h3.545v-3.287h-3.544v-3.916h-4.031v3.916h-1.886v3.287h1.887zm17.265-7.89a3.519 3.519 0 0 1 3.773 3.4H51a3.678 3.678 0 0 1 3.741-3.399zm7.518 7.832h-4.317a3.263 3.263 0 0 1-3.173 1.915 3.705 3.705 0 0 1-3.8-3.659h11.576a9.354 9.354 0 0 0 .114-1.544 7.435 7.435 0 0 0-7.8-7.832c-4.688 0-7.947 3.173-7.947 8.175 0 4.974 3.344 8.175 7.947 8.175a7.36 7.36 0 0 0 7.4-5.229zm3.316 4.974h4v-21.153h-4zm7.947 0h4v-21.153h-4zm7.947 0h4v-15.836h-4zm2.03-17.723a2.364 2.364 0 0 0 2.458-2.344 2.364 2.364 0 0 0-2.457-2.343 2.347 2.347 0 0 0-2.458 2.344 2.347 2.347 0 0 0 2.458 2.344zm4.888 9.748c0 4.945 3.2 8.233 7.232 8.233a6.246 6.246 0 0 0 5.231-2.6v2.458c0 2.944-1.715 4.2-3.916 4.2-2 0-3.487-.943-3.888-2.373h-3.974c.4 3.63 3.516 5.86 7.975 5.86 5.2 0 7.832-3.4 7.832-7.689v-15.951h-4.031v2.258a6.2 6.2 0 0 0-5.231-2.515c-4.03.001-7.231 3.174-7.231 8.12zm12.463.057c0 3-2 4.659-4.2 4.659-2.144 0-4.173-1.715-4.173-4.717s2.03-4.6 4.173-4.6c2.198-.001 4.199 1.657 4.199 4.659zm14.75-4.888a3.519 3.519 0 0 1 3.773 3.4h-7.518a3.678 3.678 0 0 1 3.745-3.399zm7.518 7.832H118.8a3.263 3.263 0 0 1-3.173 1.915 3.705 3.705 0 0 1-3.8-3.659H123.4a9.353 9.353 0 0 0 .114-1.544 7.435 7.435 0 0 0-7.8-7.832c-4.688 0-7.947 3.173-7.947 8.175 0 4.974 3.344 8.175 7.947 8.175a7.36 7.36 0 0 0 7.403-5.229zm14.407 4.974h4v-9.29c0-4.374-2.63-6.775-6.317-6.775a5.915 5.915 0 0 0-4.774 2.2v-1.972h-4v15.836h4v-8.747c0-2.544 1.4-3.916 3.573-3.916 2.115 0 3.516 1.372 3.516 3.916zm8.433-4.917c0 3.63 2.03 4.917 5.06 4.917h2.515v-3.373h-1.858c-1.258 0-1.687-.457-1.687-1.515v-7.661h3.545v-3.287h-3.545v-3.916h-4.031v3.916h-1.887v3.287h1.887z" class="cls-2" data-name="Path 3" transform="translate(45.195 113.68)"/>
    <path id="Path_4" d="M5.7-38.622v-1.195H4.62v9.557H5.7v-4.27a2.8 2.8 0 0 0 2.425 1.3A3.119 3.119 0 0 0 11.2-36.6a3.072 3.072 0 0 0-3.075-3.324A2.738 2.738 0 0 0 5.7-38.622zm4.4 2.022a2.222 2.222 0 0 1-2.2 2.425 2.224 2.224 0 0 1-2.2-2.413 2.228 2.228 0 0 1 2.2-2.4 2.191 2.191 0 0 1 2.2 2.388zm4.258-.26c0-1.5.781-1.964 1.81-1.964h.284v-1.112a2.183 2.183 0 0 0-2.094 1.171v-1.053h-1.08v6.482h1.076zm10.149.272a3.164 3.164 0 0 0-3.276-3.336 3.17 3.17 0 0 0-3.276 3.336 3.147 3.147 0 0 0 3.229 3.359 3.214 3.214 0 0 0 3.316-3.359zm-5.453 0a2.149 2.149 0 0 1 2.165-2.4 2.178 2.178 0 0 1 2.188 2.4 2.2 2.2 0 0 1-2.224 2.413 2.135 2.135 0 0 1-2.132-2.413zm8.611-2.034v-1.195h-1.08v9.557h1.076v-4.27a2.8 2.8 0 0 0 2.425 1.3 3.119 3.119 0 0 0 3.076-3.37 3.072 3.072 0 0 0-3.075-3.324 2.738 2.738 0 0 0-2.425 1.302zm4.4 2.023a2.222 2.222 0 0 1-2.2 2.425 2.224 2.224 0 0 1-2.2-2.413 2.228 2.228 0 0 1 2.2-2.4 2.191 2.191 0 0 1 2.197 2.387zM38-39.012a1.9 1.9 0 0 1 2.046 1.964h-4.093A2.007 2.007 0 0 1 38-39.012zm3.028 3.679h-1.16a1.781 1.781 0 0 1-1.822 1.195 2.038 2.038 0 0 1-2.105-2.034h5.181a5.835 5.835 0 0 0 .035-.651 2.971 2.971 0 0 0-3.111-3.1 3.084 3.084 0 0 0-3.205 3.336 3.122 3.122 0 0 0 3.205 3.359 2.915 2.915 0 0 0 2.982-2.106zm3.288-1.526c0-1.5.781-1.964 1.81-1.964h.284v-1.112a2.183 2.183 0 0 0-2.094 1.171v-1.053H43.24v6.482h1.076zm4.235 1.751c0 1.3.651 1.774 1.8 1.774h.97v-.911h-.792c-.662 0-.9-.225-.9-.863v-3.822h1.691v-.887h-1.693v-1.632h-1.076v1.632h-.84v.887h.84zm7.192.544l-2.034-5.252h-1.196l2.614 6.411-1.277 3.122h1.112l3.9-9.534h-1.109zm8.682 1.23H65.5v-6.116l2.732 6.115h.757l2.721-6.1v6.1h1.076v-8.185h-1.147l-3.028 6.766-3.028-6.766h-1.159zM74.869-36.6a3.117 3.117 0 0 0 3.064 3.371 2.707 2.707 0 0 0 2.425-1.313v1.206h1.088v-6.482h-1.089v1.183a2.69 2.69 0 0 0-2.413-1.289 3.072 3.072 0 0 0-3.075 3.324zm5.488.012a2.218 2.218 0 0 1-2.2 2.413 2.22 2.22 0 0 1-2.188-2.425 2.189 2.189 0 0 1 2.188-2.389 2.221 2.221 0 0 1 2.2 2.401zm8.315 3.253h1.065v-3.821a2.515 2.515 0 0 0-2.65-2.78 2.4 2.4 0 0 0-2.082 1.041v-.923h-1.076v6.482h1.076v-3.584c0-1.4.757-2.082 1.857-2.082s1.81.674 1.81 2zm3.087-3.265a3.117 3.117 0 0 0 3.064 3.371 2.707 2.707 0 0 0 2.425-1.313v1.206h1.088v-6.482h-1.088v1.183a2.69 2.69 0 0 0-2.413-1.289 3.072 3.072 0 0 0-3.076 3.324zm5.488.012a2.218 2.218 0 0 1-2.2 2.413A2.22 2.22 0 0 1 92.86-36.6a2.189 2.189 0 0 1 2.188-2.389 2.221 2.221 0 0 1 2.2 2.401zm3.17-.012a3.119 3.119 0 0 0 3.075 3.371 2.709 2.709 0 0 0 2.413-1.325v1.36a1.924 1.924 0 0 1-2.011 2.117 2.012 2.012 0 0 1-2.07-1.313h-1.065c.213 1.384 1.431 2.247 3.135 2.247a2.906 2.906 0 0 0 3.1-3.052v-6.624h-1.088v1.183a2.672 2.672 0 0 0-2.413-1.289 3.072 3.072 0 0 0-3.075 3.325zm5.488.012a2.218 2.218 0 0 1-2.2 2.413 2.22 2.22 0 0 1-2.188-2.425 2.189 2.189 0 0 1 2.188-2.389 2.221 2.221 0 0 1 2.201 2.401zm6.328-2.425a1.9 1.9 0 0 1 2.046 1.964h-4.093a2.007 2.007 0 0 1 2.048-1.963zm3.028 3.679H114.1a1.781 1.781 0 0 1-1.822 1.195 2.038 2.038 0 0 1-2.105-2.034h5.181a5.834 5.834 0 0 0 .035-.651 2.971 2.971 0 0 0-3.111-3.1 3.084 3.084 0 0 0-3.205 3.336 3.122 3.122 0 0 0 3.205 3.359 2.915 2.915 0 0 0 2.984-2.105zm11.568 2h1.071v-3.821a2.509 2.509 0 0 0-2.626-2.78 2.4 2.4 0 0 0-2.295 1.443 2.439 2.439 0 0 0-2.377-1.443 2.343 2.343 0 0 0-2.046 1.053v-.934h-1.076v6.482h1.076v-3.572c0-1.4.745-2.094 1.833-2.094 1.065 0 1.774.674 1.774 2v3.667h1.065v-3.572c0-1.4.745-2.094 1.833-2.094 1.065 0 1.774.674 1.774 2zm6.245-5.678a1.9 1.9 0 0 1 2.046 1.964h-4.09a2.007 2.007 0 0 1 2.046-1.964zm3.028 3.679h-1.159a1.781 1.781 0 0 1-1.822 1.195 2.038 2.038 0 0 1-2.105-2.034h5.184a5.836 5.836 0 0 0 .035-.651 2.971 2.971 0 0 0-3.111-3.1 3.084 3.084 0 0 0-3.206 3.336 3.122 3.122 0 0 0 3.206 3.359 2.915 2.915 0 0 0 2.976-2.106zm6.955 2h1.065v-3.821a2.515 2.515 0 0 0-2.65-2.78 2.4 2.4 0 0 0-2.082 1.041v-.923h-1.076v6.482h1.076v-3.584c0-1.4.757-2.082 1.857-2.082s1.81.674 1.81 2zm3.726-1.774c0 1.3.651 1.774 1.8 1.774h.97v-.911h-.792c-.662 0-.9-.225-.9-.863v-3.823h1.691v-.887h-1.691v-1.632h-1.076v1.632h-.84v.887h.84z" class="cls-2" data-name="Path 4" transform="translate(51.096 73.094)"/>
</svg>
